<svg width="24" height="24" viewBox="0 0 24 24" fill="none" xmlns="http://www.w3.org/2000/svg">
<path fill-rule="evenodd" clip-rule="evenodd" d="M21.1268 12C21.1268 12.7606 21.8028 13.4366 22.5634 13.4366C23.4085 13.4366 24 12.8451 24 12C24 11.2394 23.3239 10.5634 22.5634 10.5634C21.8028 10.5634 21.1268 11.2394 21.1268 12ZM18.4225 18.507C17.831 19.0141 17.831 19.9437 18.4225 20.5352C19.0141 21.0423 19.9437 21.0423 20.4507 20.5352C21.0423 20.0282 21.0423 19.0986 20.4507 18.507C19.9437 17.9155 19.0141 17.9155 18.4225 18.507ZM18.4225 3.5493C17.831 4.05634 17.831 4.98592 18.4225 5.57746C19.0141 6.16901 19.9437 6.16901 20.4507 5.57746C21.0423 5.07042 21.0423 4.14084 20.4507 3.5493C19.9437 2.95775 19.0141 2.95775 18.4225 3.5493ZM10.5634 1.43662C10.5634 2.19718 11.2394 2.87324 12 2.87324C12.8451 2.87324 13.4366 2.19718 13.4366 1.43662C13.4366 0.676056 12.7606 0 12 0C11.2394 0 10.5634 0.676056 10.5634 1.43662ZM3.5493 3.5493C2.95775 4.05634 2.95775 4.98592 3.5493 5.57746C4.05634 6.16901 4.98592 6.08451 5.57746 5.57746C6.16901 5.07042 6.16901 4.14084 5.57746 3.5493C5.07042 2.95775 4.14084 2.95775 3.5493 3.5493ZM0 12C0 12.7606 0.676056 13.4366 1.43662 13.4366C2.28169 13.4366 2.87324 12.8451 2.87324 12C2.87324 11.2394 2.19718 10.5634 1.43662 10.5634C0.676056 10.5634 0 11.2394 0 12ZM5.57746 20.4507C6.16901 19.9437 6.16901 19.0141 5.57746 18.4225C4.98592 17.9155 4.05634 17.9155 3.5493 18.4225C2.95775 18.9296 2.95775 19.8592 3.5493 20.4507C4.05634 21.0423 4.98592 20.9577 5.57746 20.4507ZM13.4366 22.5634C13.4366 21.8028 12.7606 21.1268 12 21.1268C11.2394 21.1268 10.5634 21.8028 10.5634 22.5634C10.5634 23.3239 11.2394 24 12 24C12.7606 24 13.4366 23.3239 13.4366 22.5634ZM12.1 18.9C15.8555 18.9 18.9 15.8555 18.9 12.1C18.9 8.34447 15.8555 5.3 12.1 5.3C8.34445 5.3 5.29999 8.34447 5.29999 12.1C5.29999 15.8555 8.34445 18.9 12.1 18.9Z" fill="white"/>
</svg>
