<svg width="28" height="28" viewBox="0 0 28 28" fill="none" xmlns="http://www.w3.org/2000/svg">
<path fill-rule="evenodd" clip-rule="evenodd" d="M8.5 10C9.32843 10 10 9.32843 10 8.5L10 1.5C10 0.671573 9.32843 0 8.5 0C7.67157 0 7 0.671573 7 1.5L7 7L1.5 7C0.671573 7 0 7.67157 0 8.5C0 9.32843 0.671573 10 1.5 10L8.5 10Z" fill="white"/>
<path fill-rule="evenodd" clip-rule="evenodd" d="M10 19.5C10 18.6716 9.32843 18 8.5 18H1.5C0.671573 18 0 18.6716 0 19.5C0 20.3284 0.671573 21 1.5 21H7L7 26.5C7 27.3284 7.67157 28 8.5 28C9.32843 28 10 27.3284 10 26.5V19.5Z" fill="white"/>
<path fill-rule="evenodd" clip-rule="evenodd" d="M18 8.50002C18 9.32844 18.6716 10 19.5 10H26.5C27.3284 10 28 9.32844 28 8.50002C28 7.67159 27.3284 7.00002 26.5 7.00002L21 7.00002V1.5C21 0.671573 20.3284 0 19.5 0C18.6716 0 18 0.671573 18 1.5V8.5C18 8.50001 18 8.50001 18 8.50002Z" fill="white"/>
<path fill-rule="evenodd" clip-rule="evenodd" d="M19.5 18C18.6716 18 18 18.6716 18 19.5V19.5V26.5C18 27.3284 18.6716 28 19.5 28C20.3284 28 21 27.3284 21 26.5V21H26.5C27.3284 21 28 20.3284 28 19.5C28 18.6716 27.3284 18 26.5 18H19.5068C19.5046 18 19.5023 18 19.5 18Z" fill="white"/>
</svg>
