<svg width="28" height="28" viewBox="0 0 28 28" xmlns="http://www.w3.org/2000/svg">
  <path fill-rule="evenodd" clip-rule="evenodd" d="M1.5 0C0.671573 0 0 0.671573 0 1.5V8.5C0 9.32843 0.671573 10 1.5 10C2.32843 10 3 9.32843 3 8.5V3H8.5C9.32843 3 10 2.32843 10 1.5C10 0.671573 9.32843 0 8.5 0H1.5Z" />
  <path fill-rule="evenodd" clip-rule="evenodd" d="M0 26.5C0 27.3284 0.671573 28 1.5 28L8.5 28C9.32843 28 10 27.3284 10 26.5C10 25.6716 9.32843 25 8.5 25H3L3 19.5C3 18.6716 2.32843 18 1.5 18C0.671573 18 0 18.6716 0 19.5L0 26.5Z" />
  <path fill-rule="evenodd" clip-rule="evenodd" d="M25 3.00003L19.5 3.00003C18.6716 3.00003 18 2.32846 18 1.50003C18 0.671603 18.6716 3.05176e-05 19.5 3.05176e-05L26.4932 3.05176e-05C26.4954 2.03486e-05 26.4977 1.52588e-05 26.5 1.52588e-05C27.3284 1.52588e-05 28 0.671588 28 1.50002V1.50003V8.50002C28 9.32844 27.3284 10 26.5 10C25.6716 10 25 9.32844 25 8.50002V3.00003Z" />
  <path fill-rule="evenodd" clip-rule="evenodd" d="M25 25L25 19.5C25 18.6715 25.6716 18 26.5 18C27.3284 18 28 18.6715 28 19.5L28 26.5C28 26.5 28 26.5 28 26.5C28 27.3284 27.3284 28 26.5 28L19.5 28C18.6716 28 18 27.3284 18 26.5C18 25.6716 18.6716 25 19.5 25L25 25Z" />
</svg>
