<svg width="22" height="24" viewBox="0 0 22 24" fill="none" xmlns="http://www.w3.org/2000/svg">
<path d="M10.9064 24C8.11221 24 5.31803 22.9367 3.19082 20.8095C-1.06361 16.555 -1.06361 9.63247 3.19082 5.37832C3.61691 4.95222 4.30789 4.95222 4.73399 5.37832C5.16008 5.80441 5.16008 6.49539 4.73399 6.92149C1.33039 10.3251 1.33039 15.863 4.73399 19.2666C8.13731 22.6699 13.6755 22.6699 17.0791 19.2666C20.4824 15.8627 20.4824 10.3248 17.0791 6.92121C16.653 6.49512 16.653 5.80414 17.0791 5.37804C17.5052 4.95195 18.1964 4.95195 18.622 5.37804C22.8764 9.63247 22.8764 16.555 18.622 20.8092C16.4948 22.9367 13.7006 24 10.9064 24Z" fill="white"/>
<path d="M11.9976 12.0027C11.9976 12.6053 11.509 13.0939 10.9064 13.0939C10.3038 13.0939 9.81525 12.6053 9.81525 12.0027V1.09116C9.81525 0.488566 10.3038 0 10.9064 0C11.509 0 11.9976 0.488566 11.9976 1.09116V12.0027Z" fill="white"/>
</svg>
