<svg width="24" height="27" viewBox="0 0 24 27" fill="none" xmlns="http://www.w3.org/2000/svg">
<path d="M21.6508 10.3438C21.143 9.26719 20.4727 8.29219 19.65 7.43906C19.2234 6.99219 18.7563 6.58594 18.2586 6.22031L19.1523 5.03203C19.325 4.80859 19.2742 4.48359 19.0508 4.32109C18.8273 4.14844 18.5023 4.19922 18.3398 4.42266L17.4055 5.66172C16.8063 5.29609 16.1664 4.99141 15.5063 4.75781C14.968 4.56484 14.3992 4.4125 13.8305 4.30078C13.4242 4.22969 13.018 4.17891 12.6016 4.14844V2.01562H13.993C14.2773 2.01562 14.5008 1.78203 14.5008 1.50781C14.5008 1.23359 14.2672 1 13.993 1H10.1844C9.9 1 9.67657 1.23359 9.67657 1.50781C9.67657 1.78203 9.91016 2.01562 10.1844 2.01562H11.5758V4.11797C10.1031 4.14844 8.62032 4.49375 7.26954 5.12344C6.19297 5.62109 5.20782 6.29141 4.35469 7.11406C3.15625 8.26172 2.22188 9.69375 1.65313 11.2477C1.45 11.7961 1.29766 12.375 1.18594 12.9539C1.07422 13.5328 1.01329 14.1219 1.00313 14.7109C0.962504 16.3766 1.31797 18.0625 2.03907 19.5758C2.53672 20.6422 3.20704 21.607 4.02969 22.4602C5.17735 23.6586 6.61954 24.593 8.1836 25.1516C8.72188 25.3445 9.28047 25.4969 9.84922 25.5984C10.418 25.7 10.9969 25.7609 11.5656 25.7812C11.657 25.7812 11.7484 25.7812 11.8398 25.7812C13.4141 25.7812 14.9781 25.4359 16.4102 24.7656C17.4766 24.268 18.4516 23.6078 19.3047 22.7953C20.5234 21.6477 21.4578 20.2055 22.0266 18.6313C22.2297 18.0828 22.382 17.5039 22.4938 16.925C22.6055 16.3359 22.6664 15.7469 22.6766 15.1578C22.707 13.5227 22.3516 11.8469 21.6508 10.3438ZM21.4883 16.7523C21.3867 17.2805 21.2445 17.7984 21.0719 18.2961C20.5539 19.718 19.7008 21.018 18.6039 22.0641C17.832 22.7953 16.9484 23.3945 15.9836 23.8516C14.6227 24.4914 13.0992 24.8063 11.5961 24.7656C11.0781 24.7555 10.55 24.6945 10.032 24.6031C9.51407 24.5016 9.00625 24.3695 8.51875 24.1969C7.10704 23.6891 5.80704 22.8461 4.76094 21.7594C4.01954 20.9875 3.42032 20.1141 2.96329 19.1492C2.31329 17.7781 1.98829 16.2547 2.02891 14.7414C2.03907 14.2133 2.1 13.675 2.19141 13.1469C2.29297 12.6187 2.43516 12.0906 2.60782 11.593C3.11563 10.1813 3.96875 8.89141 5.05547 7.85547C5.8375 7.11406 6.7211 6.50469 7.6961 6.04766C8.98594 5.44844 10.4078 5.13359 11.8195 5.13359C11.9008 5.13359 11.982 5.13359 12.0734 5.13359C12.5914 5.14375 13.1195 5.20469 13.6375 5.29609C14.1555 5.39766 14.6633 5.52969 15.1508 5.70234C16.5625 6.21016 17.8625 7.05312 18.8984 8.12969C19.6398 8.90156 20.2492 9.79531 20.7063 10.7703C21.3461 12.1312 21.6711 13.6445 21.6305 15.1477C21.6406 15.6859 21.5797 16.2242 21.4883 16.7523Z" fill="white" stroke="white"/>
<path d="M15.8414 10.6484L13.0586 13.1672C12.9062 13.0656 12.7437 12.9742 12.5711 12.9133C12.4594 12.8727 12.3476 12.8422 12.2359 12.8219C12.1242 12.8016 12.0023 12.7914 11.8906 12.7813C11.5656 12.7813 11.2305 12.8422 10.9258 12.9844C10.7125 13.0859 10.5195 13.218 10.3469 13.3805C10.1031 13.6141 9.9203 13.8984 9.80858 14.2031C9.76796 14.3148 9.73749 14.4266 9.71718 14.5383C9.69687 14.65 9.68671 14.7719 9.67655 14.8938C9.6664 15.2289 9.73749 15.5641 9.87968 15.8687C9.98124 16.082 10.1133 16.275 10.2758 16.4477C10.5094 16.6914 10.7937 16.8742 11.1086 16.9859C11.2203 17.0266 11.332 17.057 11.4437 17.0773C11.5555 17.0977 11.6773 17.1078 11.7891 17.118C11.8094 17.118 11.8297 17.118 11.8398 17.118C12.1547 17.118 12.4695 17.0469 12.7539 16.9148C12.9672 16.8133 13.1601 16.6812 13.3328 16.5187C13.5766 16.2852 13.7594 16.0008 13.8812 15.6859C13.9219 15.5742 13.9523 15.4625 13.9726 15.3508C13.993 15.2391 14.0031 15.1172 14.0133 14.9953C14.0234 14.6602 13.9523 14.3352 13.8101 14.0305C13.7898 13.9898 13.7695 13.9594 13.7492 13.9289L16.5422 11.4102C16.7555 11.2172 16.7656 10.9023 16.5828 10.6891C16.3797 10.4758 16.0547 10.4656 15.8414 10.6484ZM12.957 15.1578C12.9469 15.2187 12.9266 15.2797 12.9062 15.3406C12.8453 15.5031 12.7437 15.6555 12.6219 15.7773C12.5305 15.8586 12.4289 15.9297 12.3172 15.9805C12.1547 16.0516 11.982 16.0922 11.8094 16.082C11.7484 16.082 11.6875 16.0719 11.6266 16.0617C11.5656 16.0516 11.5047 16.0313 11.4539 16.0109C11.2914 15.95 11.1391 15.8586 11.0172 15.7266C10.9359 15.6352 10.8648 15.5336 10.8039 15.4219C10.7328 15.2594 10.6922 15.0867 10.6922 14.9141C10.6922 14.8531 10.7023 14.7922 10.7125 14.7312C10.7226 14.6703 10.743 14.6094 10.7633 14.5484C10.8242 14.3859 10.9156 14.2336 11.0476 14.1117C11.1391 14.0305 11.2406 13.9594 11.3523 13.8984C11.5047 13.8273 11.6672 13.7969 11.8297 13.7969C11.8398 13.7969 11.85 13.7969 11.8601 13.7969C11.9211 13.7969 11.982 13.807 12.043 13.8172C12.1039 13.8273 12.1648 13.8477 12.2156 13.868C12.3781 13.9289 12.5305 14.0203 12.6523 14.1523C12.6625 14.1625 12.6625 14.1625 12.6726 14.1727C12.6726 14.1727 12.6726 14.1828 12.6828 14.1828C12.6828 14.1828 12.6828 14.1828 12.693 14.1828C12.7641 14.2641 12.825 14.3555 12.8758 14.457C12.9469 14.6195 12.9875 14.7922 12.9875 14.9648C12.9773 15.0359 12.9672 15.0969 12.957 15.1578Z" fill="white" stroke="white"/>
</svg>
