<svg width="116" height="46" viewBox="0 0 116 46" fill="none" xmlns="http://www.w3.org/2000/svg">
<path d="M0 19.9756L0.340631 0.267637H5.01214L7.17758 11.7274L9.51333 0.267637H14.0145L14.3552 19.9756H11.2651L10.9002 6.86128L8.61309 19.9756H5.86372L3.43064 6.76395L3.13867 19.9756H0Z" fill="white"/>
<path d="M22.8491 20.2675C21.373 20.2675 20.2051 20.008 19.3454 19.4889C18.4857 18.9699 17.8694 18.2237 17.4963 17.2505C17.1232 16.2773 16.9367 15.1175 16.9367 13.7712V6.44765C16.9367 5.08513 17.1232 3.92536 17.4963 2.96835C17.8694 2.01134 18.4857 1.28142 19.3454 0.778584C20.2051 0.259528 21.373 0 22.8491 0C24.3414 0 25.5173 0.259528 26.377 0.778584C27.2529 1.28142 27.8774 2.01134 28.2505 2.96835C28.6236 3.92536 28.8101 5.08513 28.8101 6.44765V13.7712C28.8101 15.1175 28.6236 16.2773 28.2505 17.2505C27.8774 18.2237 27.2529 18.9699 26.377 19.4889C25.5173 20.008 24.3414 20.2675 22.8491 20.2675ZM22.8491 17.1775C23.3032 17.1775 23.6358 17.064 23.8466 16.8369C24.0575 16.6098 24.1954 16.3178 24.2603 15.961C24.3251 15.6041 24.3576 15.2392 24.3576 14.8661V5.3771C24.3576 4.98781 24.3251 4.62285 24.2603 4.28221C24.1954 3.92536 24.0575 3.63339 23.8466 3.40631C23.6358 3.17922 23.3032 3.06568 22.8491 3.06568C22.4273 3.06568 22.111 3.17922 21.9002 3.40631C21.6893 3.63339 21.5514 3.92536 21.4865 4.28221C21.4217 4.62285 21.3892 4.98781 21.3892 5.3771V14.8661C21.3892 15.2392 21.4135 15.6041 21.4622 15.961C21.5271 16.3178 21.6569 16.6098 21.8515 16.8369C22.0624 17.064 22.3949 17.1775 22.8491 17.1775Z" fill="white"/>
<path d="M37.1054 20.2675C35.6293 20.2675 34.4614 20.008 33.6017 19.4889C32.7421 18.9699 32.1257 18.2237 31.7526 17.2505C31.3795 16.2773 31.193 15.1175 31.193 13.7712V6.44765C31.193 5.08513 31.3795 3.92536 31.7526 2.96835C32.1257 2.01134 32.7421 1.28142 33.6017 0.778584C34.4614 0.259528 35.6293 0 37.1054 0C38.5977 0 39.7737 0.259528 40.6333 0.778584C41.5092 1.28142 42.1337 2.01134 42.5068 2.96835C42.8799 3.92536 43.0664 5.08513 43.0664 6.44765V13.7712C43.0664 15.1175 42.8799 16.2773 42.5068 17.2505C42.1337 18.2237 41.5092 18.9699 40.6333 19.4889C39.7737 20.008 38.5977 20.2675 37.1054 20.2675ZM37.1054 17.1775C37.5596 17.1775 37.8921 17.064 38.1029 16.8369C38.3138 16.6098 38.4517 16.3178 38.5166 15.961C38.5814 15.6041 38.6139 15.2392 38.6139 14.8661V5.3771C38.6139 4.98781 38.5814 4.62285 38.5166 4.28221C38.4517 3.92536 38.3138 3.63339 38.1029 3.40631C37.8921 3.17922 37.5596 3.06568 37.1054 3.06568C36.6836 3.06568 36.3673 3.17922 36.1565 3.40631C35.9456 3.63339 35.8077 3.92536 35.7429 4.28221C35.678 4.62285 35.6455 4.98781 35.6455 5.3771V14.8661C35.6455 15.2392 35.6699 15.6041 35.7185 15.961C35.7834 16.3178 35.9132 16.6098 36.1078 16.8369C36.3187 17.064 36.6512 17.1775 37.1054 17.1775Z" fill="white"/>
<path d="M45.7169 19.9756V0.267637H50.7048C52.4241 0.267637 53.7623 0.486614 54.7193 0.924568C55.6763 1.3463 56.3495 2.01945 56.7388 2.94402C57.1281 3.85237 57.3227 5.03647 57.3227 6.49632V13.6496C57.3227 15.1256 57.1281 16.3341 56.7388 17.2748C56.3495 18.1994 55.6763 18.8807 54.7193 19.3186C53.7785 19.7566 52.4566 19.9756 50.7534 19.9756H45.7169ZM50.0722 16.9585H50.7534C51.4185 16.9585 51.897 16.8612 52.1889 16.6666C52.4809 16.4719 52.6593 16.18 52.7242 15.7907C52.8053 15.4014 52.8459 14.9148 52.8459 14.3308V5.74206C52.8459 5.15812 52.7972 4.68773 52.6999 4.33088C52.6188 3.97403 52.4322 3.7145 52.1403 3.55229C51.8483 3.39009 51.3779 3.30898 50.7291 3.30898H50.0722V16.9585Z" fill="white"/>
<path d="M59.9733 19.9756V0.267637H64.3285V17.0315H68.854V19.9756H59.9733Z" fill="white"/>
<path d="M70.5948 19.9756V0.267637H74.95V19.9756H70.5948Z" fill="white"/>
<path d="M83.0225 20.2675C81.66 20.2675 80.5813 19.9837 79.7865 19.416C79.0079 18.8482 78.4483 18.0534 78.1077 17.0315C77.7833 15.9934 77.6211 14.8012 77.6211 13.4549V6.83695C77.6211 5.44198 77.7995 4.23355 78.1563 3.21166C78.5132 2.18977 79.1215 1.40307 79.9811 0.851577C80.857 0.283859 82.0411 0 83.5334 0C84.9933 0 86.1368 0.243307 86.9641 0.729923C87.8075 1.21654 88.4077 1.88969 88.7645 2.74938C89.1214 3.60906 89.2998 4.61474 89.2998 5.76639V7.03159H85.0419V5.42576C85.0419 5.00403 85.0095 4.61474 84.9446 4.25788C84.896 3.90103 84.7662 3.61717 84.5553 3.40631C84.3607 3.17922 84.0363 3.06568 83.5821 3.06568C83.1117 3.06568 82.7711 3.19544 82.5602 3.45497C82.3493 3.69828 82.2115 4.00647 82.1466 4.37954C82.0979 4.75261 82.0736 5.1419 82.0736 5.54742V14.6715C82.0736 15.1094 82.1141 15.523 82.1952 15.9123C82.2926 16.2854 82.4548 16.5936 82.6819 16.8369C82.9252 17.064 83.2658 17.1775 83.7037 17.1775C84.1579 17.1775 84.5067 17.0559 84.75 16.8126C84.9933 16.5693 85.1636 16.253 85.2609 15.8637C85.3582 15.4744 85.4069 15.0607 85.4069 14.6228V12.3114H83.6308V9.75664H89.3242V19.9756H86.4531L86.2098 18.3454C85.9503 18.8969 85.5691 19.3592 85.0663 19.7323C84.5634 20.0891 83.8822 20.2675 83.0225 20.2675Z" fill="white"/>
<path d="M92.1229 19.9756V0.267637H96.4782V8.24813H99.5195V0.267637H103.899V19.9756H99.5195V11.3625H96.4782V19.9756H92.1229Z" fill="white"/>
<path d="M108.676 19.9756V3.50363H105.708V0.267637H116V3.50363H113.056V19.9756H108.676Z" fill="white"/>
<path d="M38.464 43.578C38.1373 43.578 37.8527 43.494 37.61 43.326C37.3767 43.158 37.1807 42.9853 37.022 42.808V43.452H36V32.112H37.022V36.032C37.1807 35.8267 37.386 35.6447 37.638 35.486C37.89 35.318 38.198 35.234 38.562 35.234C38.954 35.234 39.2713 35.3273 39.514 35.514C39.7567 35.6913 39.9433 35.934 40.074 36.242C40.2047 36.55 40.2933 36.8953 40.34 37.278C40.3867 37.6607 40.41 38.0527 40.41 38.454V40.162C40.41 40.8527 40.3493 41.4547 40.228 41.968C40.116 42.472 39.92 42.8687 39.64 43.158C39.36 43.438 38.968 43.578 38.464 43.578ZM38.282 42.766C38.5993 42.766 38.8327 42.668 38.982 42.472C39.1407 42.276 39.2433 41.9867 39.29 41.604C39.346 41.212 39.374 40.7407 39.374 40.19V38.454C39.374 37.9313 39.346 37.4927 39.29 37.138C39.2433 36.774 39.1407 36.4987 38.982 36.312C38.8327 36.1253 38.5947 36.032 38.268 36.032C38.016 36.032 37.778 36.102 37.554 36.242C37.3393 36.382 37.162 36.522 37.022 36.662V42.178C37.1713 42.3367 37.3533 42.4767 37.568 42.598C37.7827 42.71 38.0207 42.766 38.282 42.766Z" fill="white"/>
<path d="M41.5862 45.468V44.67C42.0529 44.67 42.4029 44.6327 42.6362 44.558C42.8789 44.4927 43.0376 44.3947 43.1122 44.264C43.1962 44.1427 43.2382 43.998 43.2382 43.83C43.2382 43.6807 43.2102 43.4847 43.1542 43.242C43.0982 42.9993 43.0376 42.7473 42.9722 42.486L41.3062 35.36H42.3282L43.7282 42.248L45.0862 35.36H46.1222L44.1622 44.026C44.0876 44.3713 43.9522 44.6467 43.7562 44.852C43.5696 45.0667 43.3176 45.2207 43.0002 45.314C42.6922 45.4167 42.3096 45.468 41.8522 45.468H41.5862Z" fill="white"/>
<path d="M49.5937 43.452L51.9877 32.112H53.1077L55.5157 43.452H54.4657L53.9057 40.414H51.2037L50.6297 43.452H49.5937ZM51.3577 39.644H53.7657L52.5617 33.526L51.3577 39.644Z" fill="white"/>
<path d="M59.1495 43.578C58.8229 43.578 58.5382 43.494 58.2955 43.326C58.0622 43.158 57.8662 42.9853 57.7075 42.808V43.452H56.6855V32.112H57.7075V36.032C57.8662 35.8267 58.0715 35.6447 58.3235 35.486C58.5755 35.318 58.8835 35.234 59.2475 35.234C59.6395 35.234 59.9569 35.3273 60.1995 35.514C60.4422 35.6913 60.6289 35.934 60.7595 36.242C60.8902 36.55 60.9789 36.8953 61.0255 37.278C61.0722 37.6607 61.0955 38.0527 61.0955 38.454V40.162C61.0955 40.8527 61.0349 41.4547 60.9135 41.968C60.8015 42.472 60.6055 42.8687 60.3255 43.158C60.0455 43.438 59.6535 43.578 59.1495 43.578ZM58.9675 42.766C59.2849 42.766 59.5182 42.668 59.6675 42.472C59.8262 42.276 59.9289 41.9867 59.9755 41.604C60.0315 41.212 60.0595 40.7407 60.0595 40.19V38.454C60.0595 37.9313 60.0315 37.4927 59.9755 37.138C59.9289 36.774 59.8262 36.4987 59.6675 36.312C59.5182 36.1253 59.2802 36.032 58.9535 36.032C58.7015 36.032 58.4635 36.102 58.2395 36.242C58.0249 36.382 57.8475 36.522 57.7075 36.662V42.178C57.8569 42.3367 58.0389 42.4767 58.2535 42.598C58.4682 42.71 58.7062 42.766 58.9675 42.766Z" fill="white"/>
<path d="M62.4958 43.452V35.36H63.5178V36.2C63.7791 35.92 64.0731 35.6913 64.3998 35.514C64.7264 35.3273 65.0811 35.234 65.4638 35.234C65.7344 35.234 65.9631 35.304 66.1498 35.444C66.3364 35.5747 66.4764 35.7707 66.5698 36.032C66.6631 36.284 66.7098 36.592 66.7098 36.956V43.452H65.6878V37.18C65.6878 36.76 65.6224 36.466 65.4918 36.298C65.3704 36.1207 65.1791 36.032 64.9178 36.032C64.6844 36.032 64.4464 36.102 64.2038 36.242C63.9611 36.382 63.7324 36.564 63.5178 36.788V43.452H62.4958Z" fill="white"/>
<path d="M70.2543 43.578C69.7503 43.578 69.3349 43.48 69.0083 43.284C68.6909 43.0787 68.4529 42.7427 68.2943 42.276C68.1449 41.8093 68.0703 41.1887 68.0703 40.414V38.37C68.0703 37.5673 68.1496 36.942 68.3083 36.494C68.4669 36.0367 68.7096 35.7147 69.0363 35.528C69.3629 35.332 69.7736 35.234 70.2683 35.234C70.8376 35.234 71.2716 35.3553 71.5703 35.598C71.8689 35.8407 72.0743 36.2093 72.1863 36.704C72.3076 37.1893 72.3683 37.8147 72.3683 38.58V39.308H69.0923V40.722C69.0923 41.2447 69.1296 41.66 69.2043 41.968C69.2883 42.2667 69.4143 42.4813 69.5823 42.612C69.7596 42.7427 69.9836 42.808 70.2543 42.808C70.4596 42.808 70.6463 42.7707 70.8143 42.696C70.9823 42.612 71.1129 42.458 71.2063 42.234C71.3089 42.0007 71.3603 41.674 71.3603 41.254V40.694H72.3543V41.142C72.3543 41.8793 72.2003 42.472 71.8923 42.92C71.5936 43.3587 71.0476 43.578 70.2543 43.578ZM69.0923 38.72H71.3603V38.048C71.3603 37.6187 71.3369 37.2547 71.2903 36.956C71.2436 36.648 71.1409 36.4147 70.9823 36.256C70.8329 36.088 70.5903 36.004 70.2543 36.004C69.9743 36.004 69.7456 36.0647 69.5683 36.186C69.4003 36.3073 69.2789 36.5267 69.2043 36.844C69.1296 37.152 69.0923 37.5953 69.0923 38.174V38.72Z" fill="white"/>
<path d="M73.8177 43.452V35.36H74.8537V36.466C75.1151 36.0367 75.4137 35.7333 75.7497 35.556C76.0857 35.3693 76.4077 35.276 76.7157 35.276C76.7437 35.276 76.7717 35.276 76.7997 35.276C76.8277 35.276 76.8604 35.2807 76.8977 35.29V36.382C76.8324 36.354 76.7531 36.3353 76.6597 36.326C76.5664 36.3073 76.4777 36.298 76.3937 36.298C76.0764 36.298 75.7871 36.3727 75.5257 36.522C75.2737 36.6713 75.0497 36.9093 74.8537 37.236V43.452H73.8177Z" fill="white"/>
<path d="M83.3794 43.592C82.7634 43.592 82.2501 43.466 81.8394 43.214C81.4381 42.9527 81.1347 42.5933 80.9294 42.136C80.7241 41.6693 80.5981 41.128 80.5514 40.512L81.4894 40.232C81.5361 40.6987 81.6201 41.1233 81.7414 41.506C81.8627 41.8793 82.0541 42.178 82.3154 42.402C82.5767 42.6167 82.9361 42.724 83.3934 42.724C83.8974 42.724 84.2894 42.5933 84.5694 42.332C84.8494 42.0707 84.9894 41.6553 84.9894 41.086C84.9894 40.582 84.8634 40.148 84.6114 39.784C84.3687 39.42 84.0327 39.0373 83.6034 38.636L81.6014 36.718C81.2467 36.3727 80.9854 36.018 80.8174 35.654C80.6494 35.2807 80.5654 34.8747 80.5654 34.436C80.5654 33.652 80.7987 33.05 81.2654 32.63C81.7321 32.21 82.3527 32 83.1274 32C83.5287 32 83.8881 32.0513 84.2054 32.154C84.5321 32.2567 84.8074 32.4247 85.0314 32.658C85.2647 32.882 85.4467 33.176 85.5774 33.54C85.7081 33.904 85.7967 34.3473 85.8434 34.87L84.9334 35.108C84.8961 34.632 84.8167 34.226 84.6954 33.89C84.5834 33.5447 84.4014 33.2833 84.1494 33.106C83.9067 32.9287 83.5661 32.84 83.1274 32.84C82.6607 32.84 82.2781 32.9613 81.9794 33.204C81.6807 33.4467 81.5314 33.8247 81.5314 34.338C81.5314 34.646 81.5874 34.926 81.6994 35.178C81.8207 35.43 82.0307 35.7007 82.3294 35.99L84.3314 37.88C84.7794 38.3 85.1667 38.7667 85.4934 39.28C85.8201 39.7933 85.9834 40.372 85.9834 41.016C85.9834 41.5853 85.8714 42.0613 85.6474 42.444C85.4327 42.8267 85.1294 43.116 84.7374 43.312C84.3454 43.4987 83.8927 43.592 83.3794 43.592Z" fill="white"/>
<path d="M87.3128 43.452V35.36H88.3348V43.452H87.3128ZM87.3128 34.24V32.854H88.3348V34.24H87.3128Z" fill="white"/>
<path d="M90.0583 43.452V35.36H91.0103V36.186C91.2809 35.8687 91.5796 35.6307 91.9063 35.472C92.2329 35.304 92.5689 35.22 92.9143 35.22C93.1943 35.22 93.4509 35.2947 93.6843 35.444C93.9269 35.5933 94.0996 35.8687 94.2023 36.27C94.4823 35.9247 94.7903 35.6633 95.1263 35.486C95.4623 35.3087 95.8169 35.22 96.1903 35.22C96.4236 35.22 96.6429 35.276 96.8483 35.388C97.0629 35.5 97.2356 35.6913 97.3663 35.962C97.4969 36.2327 97.5623 36.6013 97.5623 37.068V43.452H96.6103V37.096C96.6103 36.62 96.5309 36.3073 96.3723 36.158C96.2229 35.9993 96.0316 35.92 95.7983 35.92C95.5369 35.92 95.2756 35.9947 95.0143 36.144C94.7529 36.2933 94.5056 36.4987 94.2723 36.76C94.2816 36.8067 94.2863 36.858 94.2863 36.914C94.2956 36.9607 94.3003 37.012 94.3003 37.068V43.452H93.3343V37.096C93.3343 36.62 93.2549 36.3073 93.0963 36.158C92.9469 35.9993 92.7556 35.92 92.5223 35.92C92.2703 35.92 92.0136 35.9947 91.7523 36.144C91.4909 36.2933 91.2436 36.494 91.0103 36.746V43.452H90.0583Z" fill="white"/>
<path d="M101.07 43.578C100.519 43.578 100.085 43.4613 99.768 43.228C99.46 42.9853 99.2407 42.64 99.11 42.192C98.9794 41.7347 98.914 41.1793 98.914 40.526V38.286C98.914 37.6327 98.9794 37.082 99.11 36.634C99.2407 36.1767 99.46 35.8313 99.768 35.598C100.085 35.3553 100.519 35.234 101.07 35.234C101.639 35.234 102.078 35.3553 102.386 35.598C102.694 35.8313 102.913 36.1767 103.044 36.634C103.175 37.082 103.24 37.6327 103.24 38.286V40.526C103.24 41.1793 103.175 41.7347 103.044 42.192C102.913 42.64 102.694 42.9853 102.386 43.228C102.078 43.4613 101.639 43.578 101.07 43.578ZM101.07 42.808C101.425 42.808 101.681 42.7147 101.84 42.528C102.008 42.3413 102.111 42.08 102.148 41.744C102.185 41.3987 102.204 41.0113 102.204 40.582V38.23C102.204 37.7913 102.185 37.4087 102.148 37.082C102.111 36.746 102.008 36.4847 101.84 36.298C101.681 36.102 101.425 36.004 101.07 36.004C100.715 36.004 100.459 36.102 100.3 36.298C100.141 36.4847 100.043 36.746 100.006 37.082C99.9687 37.4087 99.95 37.7913 99.95 38.23V40.582C99.95 41.0113 99.9687 41.3987 100.006 41.744C100.043 42.08 100.141 42.3413 100.3 42.528C100.459 42.7147 100.715 42.808 101.07 42.808ZM101.938 33.764C101.714 33.764 101.513 33.708 101.336 33.596C101.159 33.484 100.991 33.372 100.832 33.26C100.683 33.148 100.524 33.092 100.356 33.092C100.207 33.092 100.09 33.1387 100.006 33.232C99.9314 33.3253 99.894 33.4653 99.894 33.652H99.264C99.264 33.4933 99.2874 33.3207 99.334 33.134C99.39 32.938 99.488 32.77 99.628 32.63C99.768 32.49 99.9687 32.42 100.23 32.42C100.454 32.42 100.655 32.476 100.832 32.588C101.009 32.6907 101.177 32.798 101.336 32.91C101.495 33.022 101.658 33.078 101.826 33.078C101.985 33.078 102.101 33.036 102.176 32.952C102.251 32.8587 102.288 32.7 102.288 32.476H102.904C102.904 32.644 102.881 32.8307 102.834 33.036C102.797 33.232 102.708 33.4047 102.568 33.554C102.428 33.694 102.218 33.764 101.938 33.764Z" fill="white"/>
<path d="M106.69 43.578C106.186 43.578 105.771 43.48 105.444 43.284C105.126 43.0787 104.888 42.7427 104.73 42.276C104.58 41.8093 104.506 41.1887 104.506 40.414V38.37C104.506 37.5673 104.585 36.942 104.744 36.494C104.903 36.0367 105.145 35.7147 105.472 35.528C105.799 35.332 106.209 35.234 106.704 35.234C107.273 35.234 107.707 35.3553 108.006 35.598C108.304 35.8407 108.51 36.2093 108.622 36.704C108.743 37.1893 108.804 37.8147 108.804 38.58V39.308H105.528V40.722C105.528 41.2447 105.565 41.66 105.64 41.968C105.724 42.2667 105.85 42.4813 106.018 42.612C106.195 42.7427 106.419 42.808 106.69 42.808C106.895 42.808 107.082 42.7707 107.25 42.696C107.418 42.612 107.549 42.458 107.642 42.234C107.744 42.0007 107.796 41.674 107.796 41.254V40.694H108.79V41.142C108.79 41.8793 108.636 42.472 108.328 42.92C108.029 43.3587 107.483 43.578 106.69 43.578ZM105.528 38.72H107.796V38.048C107.796 37.6187 107.772 37.2547 107.726 36.956C107.679 36.648 107.576 36.4147 107.418 36.256C107.269 36.088 107.026 36.004 106.69 36.004C106.41 36.004 106.181 36.0647 106.004 36.186C105.836 36.3073 105.715 36.5267 105.64 36.844C105.565 37.152 105.528 37.5953 105.528 38.174V38.72Z" fill="white"/>
<path d="M112.031 43.578C111.387 43.578 110.874 43.3727 110.491 42.962C110.109 42.542 109.889 41.982 109.833 41.282L110.687 41.016C110.743 41.6413 110.888 42.0987 111.121 42.388C111.355 42.668 111.681 42.808 112.101 42.808C112.456 42.808 112.727 42.71 112.913 42.514C113.109 42.3087 113.207 42.024 113.207 41.66C113.207 41.3987 113.128 41.1373 112.969 40.876C112.811 40.6053 112.563 40.3253 112.227 40.036L111.121 39.084C110.757 38.776 110.482 38.468 110.295 38.16C110.109 37.852 110.015 37.4833 110.015 37.054C110.015 36.662 110.095 36.3353 110.253 36.074C110.421 35.8033 110.65 35.598 110.939 35.458C111.229 35.3087 111.565 35.234 111.947 35.234C112.563 35.234 113.03 35.4347 113.347 35.836C113.665 36.228 113.837 36.7367 113.865 37.362L113.137 37.6C113.119 37.236 113.063 36.9373 112.969 36.704C112.876 36.4613 112.745 36.284 112.577 36.172C112.419 36.06 112.223 36.004 111.989 36.004C111.681 36.004 111.429 36.0927 111.233 36.27C111.047 36.438 110.953 36.676 110.953 36.984C110.953 37.2267 111 37.4413 111.093 37.628C111.187 37.8147 111.359 38.0247 111.611 38.258L112.759 39.28C112.983 39.476 113.198 39.686 113.403 39.91C113.609 40.134 113.777 40.386 113.907 40.666C114.038 40.9367 114.103 41.2587 114.103 41.632C114.103 42.052 114.015 42.4067 113.837 42.696C113.669 42.976 113.431 43.1953 113.123 43.354C112.815 43.5033 112.451 43.578 112.031 43.578Z" fill="white"/>
</svg>
